# xmcd
# 
# Track frame offsets:
#     150
#     14707
#     32515
#     49075
#     74512
#     94007
#     110692
#     126572
#     140472
#     159552
#     177475
#     195375
#     209442
#     225760
#     242692
#     259450
#     275855
#     292990
#     307452
#     321805
# 
# Disc length: 4506
# 
# Revision: 6
# Processed by: cddbd v1.5.2PL0 Copyright (c) Steve Scherf et al.
# Submitted via: fre:ac v1.0.31
# 
DISCID=38119814
DTITLE=Various Artist - Just The Best 3/2001 - CD1
DYEAR=2001
DGENRE=Pop
TTITLE0=Atomic Kitten - Eternal flame
TTITLE1=Sarah Connor feat. TQ - Let's get back to bed - boy!
TTITLE2=Him - Pretending
TTITLE3=Gorillaz - Clint Eastwood
TTITLE4=Reamonn feat. Xavier Naidoo - Jeanny
TTITLE5=Blue - All rise
TTITLE6=Bosson - One in a million
TTITLE7=Westlife - Uptown girl
TTITLE8=Melanie Thornton - I wish it was love
TTITLE9=Emma Bunton - What took you so long?
TTITLE10=Seeed feat. Black Kappa - Dickes B
TTITLE11=Dario G - Dream to me
TTITLE12=Zee - Fühlst du mich
TTITLE13=Sofaplanet - Nie wieder
TTITLE14=Clawfinger - Out to get me
TTITLE15=Glow - Every single day
TTITLE16=BAP - Aff un zo
TTITLE17=Captain Jack - Iko iko
TTITLE18=Passion Fruit - Bongo man
TTITLE19=DJ Ötzi - Do wah diddy
EXTD=
EXTT0=
EXTT1=
EXTT2=
EXTT3=
EXTT4=
EXTT5=
EXTT6=
EXTT7=
EXTT8=
EXTT9=
EXTT10=
EXTT11=
EXTT12=
EXTT13=
EXTT14=
EXTT15=
EXTT16=
EXTT17=
EXTT18=
EXTT19=
PLAYORDER=
